<svg width="414" height="294" viewBox="0 0 414 294" fill="none" xmlns="http://www.w3.org/2000/svg">
<path d="M303.6 90.01H247.94V146.02H303.6V90.01Z" fill="#FDBA74"/>
<path d="M303.61 33.29V11.22C298.592 11.8876 293.731 13.4346 289.25 15.79C278.78 21.55 268.02 27.98 256.85 33.29H303.61Z" fill="#FDBA74"/>
<path d="M364.52 40.29H310.61V83H364.52V40.29Z" fill="#FDBA74"/>
<path d="M364.52 90.01H310.61V146.02H364.52V90.01Z" fill="#FDBA74"/>
<path d="M303.6 40.29H247.94V83H303.6V40.29Z" fill="#FDBA74"/>
<path d="M310.61 33.29H364.52V27.39C347.16 15.11 327.08 9.94001 310.61 10.57V33.29Z" fill="#FDBA74"/>
<path d="M382.38 231.44C382.38 231.44 416 155.82 402 86.51C397.19 62.71 385.7 45.1 371.54 32.86V153H240.94V40.29H240.59V39.93C232.138 42.8505 223.272 44.3935 214.33 44.5C187.03 44.5 169.52 24.19 114.21 5.29C58.9 -13.61 9.88 32.59 1.48 85.81C-6.92 139.03 35.09 191.53 33.69 223C32.29 254.47 22.28 292.49 22.28 292.49H388.68C388.68 292.49 375.37 267.85 382.38 231.44ZM146.38 108.21H72.9V19.29H146.42L146.38 108.21ZM206.91 115.91H158.32V57.1H207L206.91 115.91Z" fill="#FDBA74"/>
<path d="M140.04 26.99H79.26V100.51H140.04V26.99Z" fill="#FDBA74"/>
<path d="M202.73 62.19H162.53V110.82H202.73V62.19Z" fill="#FDBA74"/>
<g opacity="0.7">
<path d="M303.6 90.01H247.94V146.02H303.6V90.01Z" fill="white"/>
<path d="M303.61 33.29V11.22C298.592 11.8876 293.731 13.4346 289.25 15.79C278.78 21.55 268.02 27.98 256.85 33.29H303.61Z" fill="white"/>
<path d="M364.52 40.29H310.61V83H364.52V40.29Z" fill="white"/>
<path d="M364.52 90.01H310.61V146.02H364.52V90.01Z" fill="white"/>
<path d="M303.6 40.29H247.94V83H303.6V40.29Z" fill="white"/>
<path d="M310.61 33.29H364.52V27.39C347.16 15.11 327.08 9.94001 310.61 10.57V33.29Z" fill="white"/>
<path d="M382.38 231.44C382.38 231.44 416 155.82 402 86.51C397.19 62.71 385.7 45.1 371.54 32.86V153H240.94V40.29H240.59V39.93C232.138 42.8505 223.272 44.3935 214.33 44.5C187.03 44.5 169.52 24.19 114.21 5.29C58.9 -13.61 9.88 32.59 1.48 85.81C-6.92 139.03 35.09 191.53 33.69 223C32.29 254.47 22.28 292.49 22.28 292.49H388.68C388.68 292.49 375.37 267.85 382.38 231.44ZM146.38 108.21H72.9V19.29H146.42L146.38 108.21ZM206.91 115.91H158.32V57.1H207L206.91 115.91Z" fill="white"/>
<path d="M140.04 26.99H79.26V100.51H140.04V26.99Z" fill="white"/>
<path d="M202.73 62.19H162.53V110.82H202.73V62.19Z" fill="white"/>
</g>
<path d="M407.86 230.89C404.47 226.82 402.86 226.78 402.2 227.09C402.2 224.943 402.2 222.757 402.2 220.53C404.55 222.53 406.6 224.22 406.6 224.22C405.714 220.705 404.145 217.398 401.98 214.49C401.84 212.01 401.65 209.49 401.38 207.07C401.18 205.26 401.02 203.42 400.87 201.58C401.68 204.79 402.47 208.34 405.01 210.88C407.172 213.179 409.176 215.622 411.01 218.19C411.01 218.19 409.1 209.93 405.29 206.44C403.489 204.876 401.964 203.02 400.78 200.95C400.48 196.89 400.29 192.79 400.19 188.77C400.305 187.039 400.305 185.301 400.19 183.57L400.08 183.71C400.08 183.08 400.08 182.46 400.08 181.85C400.18 184.479 400.909 187.046 402.208 189.334C403.506 191.622 405.335 193.566 407.54 195C407.54 195 407.54 187.38 404.05 182.93C400.56 178.48 400.24 179.44 400.24 179.44C400.17 180.03 400.13 180.61 400.12 181.16C400.12 175.52 400.25 170.25 400.44 165.72C400.61 167.493 401.306 169.176 402.44 170.55C405.62 174.04 408.79 174.04 408.79 174.04C408.79 174.04 407.52 166.74 405.3 164.51C403.876 163.121 402.322 161.872 400.66 160.78C400.99 154.78 401.34 150.93 401.35 150.78C401.357 150.719 401.351 150.657 401.334 150.598C401.316 150.539 401.287 150.484 401.248 150.436C401.209 150.389 401.16 150.349 401.106 150.321C401.051 150.292 400.991 150.275 400.93 150.27C400.807 150.261 400.686 150.3 400.591 150.378C400.496 150.456 400.435 150.568 400.42 150.69C400.42 150.89 399.22 163.69 399.16 179.69C398.75 177.09 398.039 174.546 397.04 172.11C395.14 168.29 391.96 168.61 391.96 168.61C391.828 168.585 391.694 168.568 391.56 168.56C391.18 159.8 391.01 151.86 390.96 145.29C392.36 149.45 398.63 157.81 398.63 157.81C398.63 157.81 398.63 146.06 396.09 144.47C395.315 144.03 394.453 143.766 393.565 143.695C392.677 143.624 391.785 143.749 390.95 144.06C390.95 141.29 390.95 138.78 390.95 136.58L391.34 136.53L390.95 136.27C390.95 130.08 391.12 126.4 391.12 126.27C391.123 126.209 391.113 126.148 391.092 126.09C391.071 126.033 391.038 125.98 390.996 125.935C390.954 125.891 390.904 125.855 390.848 125.83C390.792 125.805 390.731 125.791 390.67 125.79C390.608 125.787 390.547 125.797 390.489 125.818C390.431 125.839 390.377 125.872 390.332 125.913C390.286 125.955 390.249 126.006 390.223 126.062C390.197 126.118 390.183 126.178 390.18 126.24C390.18 126.34 390.06 129.81 390.02 135.67C388.68 134.92 386.58 134.01 385.02 134.61C382.48 135.61 380.89 146.36 380.89 146.36C380.89 146.36 385.17 138.36 390.05 136.77C390.05 143.1 390.05 151.92 390.43 162.19C389.3 162.04 385.33 161.71 383.43 164.19C381.2 167.04 378.03 176.89 378.03 176.89L390.43 162.62C390.497 164.62 390.577 166.673 390.67 168.78C390.4 169.08 390.51 169.66 390.74 170.34C391.06 176.99 391.49 184.09 392.1 191.34C390.297 193.35 388.671 195.511 387.24 197.8C383.74 203.2 383.43 211.46 383.43 211.46C383.43 211.46 391.29 203.28 392.84 199.65C393.47 206.98 393.95 213.86 394.31 220.15C393.465 222.314 392.254 224.317 390.73 226.07C387.55 229.88 387.55 238.46 387.55 238.46C387.55 238.46 393.55 235.66 394.64 226.39C395.58 246.12 395.34 258.66 395.33 258.84C395.329 258.902 395.34 258.963 395.362 259.021C395.384 259.078 395.418 259.131 395.461 259.175C395.503 259.22 395.554 259.256 395.611 259.28C395.667 259.305 395.728 259.319 395.79 259.32C395.851 259.321 395.912 259.31 395.969 259.288C396.026 259.265 396.078 259.232 396.122 259.189C396.166 259.146 396.2 259.095 396.224 259.038C396.248 258.982 396.26 258.921 396.26 258.86C396.26 258.64 396.65 239.07 394.61 210.3C394.708 211.468 395.002 212.61 395.48 213.68C396.1 214.91 398.71 217.39 401.24 219.63C401.31 222.36 401.31 225.05 401.24 227.68C400.037 228.753 399.234 230.202 398.96 231.79C398.234 235.251 397.703 238.75 397.37 242.27C399.083 240.487 400.309 238.293 400.93 235.9C400.475 244.325 399.547 252.719 398.15 261.04C398.129 261.163 398.158 261.289 398.229 261.392C398.299 261.495 398.408 261.566 398.53 261.59H398.62C398.73 261.589 398.837 261.55 398.921 261.479C399.005 261.407 399.061 261.309 399.08 261.2C400.905 250.222 401.941 239.127 402.18 228C402.77 229 404.04 231.13 405.64 233.41C407.86 236.59 413.26 241.35 413.26 241.35C413.26 241.35 412.63 236.61 407.86 230.89ZM399.6 212.15C394.52 208.34 394.52 207.07 394.52 207.07C394.488 207.693 394.488 208.317 394.52 208.94C394.23 204.94 393.89 200.78 393.52 196.48C393.592 194.553 393.424 192.625 393.02 190.74C392.55 185.02 392.19 179.45 391.9 174.11C392.9 176.45 397.23 182.38 399.25 185.11V185.22C398.191 187.23 397.362 189.354 396.78 191.55C395.806 194.804 396.033 198.299 397.42 201.4C398.342 199.102 399.042 196.721 399.51 194.29C399.71 198.61 400.02 202.97 400.51 207.21C400.73 209.27 400.903 211.333 401.03 213.4C400.584 212.949 400.106 212.531 399.6 212.15Z" fill="#2E353A"/>
<path d="M405.75 292.93H389L385.42 255.24H409.34L405.75 292.93Z" fill="#2E353A"/>
<path d="M254.1 161.2V197.61H212C209.759 197.609 207.539 198.049 205.468 198.906C203.397 199.762 201.516 201.019 199.93 202.603C198.345 204.188 197.088 206.069 196.23 208.139C195.372 210.21 194.93 212.429 194.93 214.67C194.93 219.197 196.728 223.539 199.93 226.74C203.131 229.942 207.473 231.74 212 231.74C212.992 231.74 213.943 232.134 214.645 232.835C215.346 233.537 215.74 234.488 215.74 235.48V292.48H296V161.2C296 155.665 293.815 150.354 289.92 146.421C286.025 142.488 280.735 140.253 275.2 140.2C272.434 140.187 269.692 140.72 267.133 141.77C264.574 142.819 262.247 144.364 260.286 146.315C258.325 148.267 256.77 150.586 255.708 153.14C254.646 155.695 254.1 158.434 254.1 161.2Z" fill="#FDBA74" stroke="#2E353A" stroke-miterlimit="10"/>
<path d="M267.43 161.2V197.61H225.33C223.089 197.609 220.869 198.049 218.798 198.906C216.727 199.762 214.846 201.019 213.26 202.603C211.675 204.188 210.418 206.069 209.56 208.139C208.702 210.21 208.26 212.429 208.26 214.67C208.26 219.197 210.058 223.539 213.26 226.74C216.461 229.942 220.803 231.74 225.33 231.74C226.322 231.74 227.273 232.134 227.975 232.835C228.676 233.537 229.07 234.488 229.07 235.48V292.48H309.36V161.2C309.36 155.665 307.175 150.354 303.28 146.421C299.385 142.488 294.095 140.253 288.56 140.2C285.791 140.183 283.047 140.713 280.484 141.761C277.921 142.809 275.59 144.353 273.627 146.305C271.663 148.256 270.104 150.577 269.041 153.134C267.977 155.69 267.43 158.431 267.43 161.2Z" fill="#FDBA74" stroke="#2E353A" stroke-miterlimit="10"/>
<path d="M278.5 222L262 225C262 225 261.5 233.5 258.5 239C256.441 242.451 253.266 245.097 249.5 246.5L245.5 265C245.5 265 255 287 255 289.5C255 292 251.5 292.5 251.5 292.5H231.5V216H281L278.5 222Z" fill="#2E353A"/>
<path d="M260.6 208.08V160.37C260.6 149.16 270.01 140.07 281.6 140.07H368.6C380.2 140.07 389.6 149.16 389.6 160.37V216.14H279.27L260.6 208.08Z" fill="#FDBA74" stroke="#2E353A" stroke-miterlimit="10"/>
<path d="M332.73 140.06L330.89 147.76L342 151.15C342 151.15 346.59 152.8 348.47 157C350.35 161.2 351.55 170.24 351.55 170.24L351.86 178.86V196H315.86L320.78 148.4L325.4 140.4L332.73 140.06Z" fill="#2E353A"/>
<path d="M303.19 244.74C288.838 246.151 274.421 246.802 260 246.69C238.22 246.37 225.22 244.09 225.22 244.09" stroke="#2E353A" stroke-miterlimit="10"/>
<path d="M298.47 149.9C298.47 149.9 258.73 171.36 256.78 174C254.83 176.64 253.61 182 260.44 182.53C267.27 183.06 293.11 173.27 293.11 173.27L298.47 149.9Z" fill="white"/>
<mask id="mask0_1_211" style="mask-type:luminance" maskUnits="userSpaceOnUse" x="255" y="149" width="44" height="34">
<path d="M298.47 149.9C298.47 149.9 258.73 171.36 256.78 174C254.83 176.64 253.61 182 260.44 182.53C267.27 183.06 293.11 173.27 293.11 173.27L298.47 149.9Z" fill="white"/>
</mask>
<g mask="url(#mask0_1_211)">
<path d="M295.06 159L291.53 165.21L288.11 159.05L289.91 167.81L287.37 167.72L288.47 170.4L266.58 178.8C266.58 178.8 273.76 179.63 279.23 177.6C284.7 175.57 289.61 174.26 289.61 174.26L295.06 159Z" fill="#FDBA74"/>
<g style="mix-blend-mode:multiply" opacity="0.3">
<path d="M295.06 159L291.53 165.21L288.11 159.05L289.91 167.81L287.37 167.72L288.47 170.4L266.58 178.8C266.58 178.8 273.76 179.63 279.23 177.6C284.7 175.57 289.61 174.26 289.61 174.26L295.06 159Z" fill="black"/>
</g>
</g>
<path d="M298.47 149.9C298.47 149.9 258.73 171.36 256.78 174C254.83 176.64 253.61 182 260.44 182.53C267.27 183.06 293.11 173.27 293.11 173.27L298.47 149.9Z" stroke="#2E353A" stroke-linecap="round" stroke-linejoin="round"/>
<path d="M287.35 128.75C289.293 127.983 291.102 126.913 292.71 125.58C294.42 123.87 295.15 125.34 295.15 126.31C295.15 127.28 295.64 129.73 293.2 130.7C290.76 131.67 287.35 131.19 287.35 128.75Z" fill="white" stroke="#2E353A" stroke-linecap="round" stroke-linejoin="round"/>
<path d="M281.82 131.08C282.894 130.133 284.059 129.295 285.3 128.58C286.3 128.22 292.36 126.48 293.71 127.1C295.06 127.72 296.85 130.43 297.4 131.51C297.95 132.59 297.58 134.16 296.4 134.1C295.22 134.04 292.21 130.52 292.21 130.52L287.21 132.18C287.21 132.18 285.14 133.1 284.13 132.51C283.12 131.92 282.09 132.26 281.82 131.08Z" fill="white" stroke="#2E353A" stroke-linecap="round" stroke-linejoin="round"/>
<path d="M282.11 129.42C282.11 129.42 284.39 128.56 285.05 129.07C286.285 129.863 287.634 130.463 289.05 130.85C291.14 131.52 293.47 132.29 293.97 133.85C294.47 135.41 291.97 137.78 291.97 137.78C289.762 136.262 287.472 134.866 285.11 133.6C283 132.54 279.58 130.15 282.11 129.42Z" fill="white" stroke="#2E353A" stroke-linecap="round" stroke-linejoin="round"/>
<path d="M286.1 132.09L283.9 130.49C283.9 130.49 281.9 128.93 280.9 130.15C280.9 130.15 277.73 142.1 277.24 143.56C276.75 145.02 253.37 167 252.15 171.84C251.682 173.778 251.977 175.822 252.975 177.548C253.973 179.274 255.597 180.549 257.51 181.11C260.44 181.84 264.34 174.04 266.04 170.11C267.74 166.18 281.16 145.73 281.16 145.73C281.952 145.993 282.808 145.993 283.6 145.73C284.535 145.048 285.358 144.225 286.04 143.29L288.48 142.29C289.69 141.81 292.62 136.93 292.86 136.2C292.872 136.127 292.872 136.053 292.86 135.98C291.18 133.79 286.1 132.09 286.1 132.09Z" fill="white"/>
<mask id="mask1_1_211" style="mask-type:luminance" maskUnits="userSpaceOnUse" x="251" y="129" width="42" height="53">
<path d="M286.1 132.09L283.9 130.49C283.9 130.49 281.9 128.93 280.9 130.15C280.9 130.15 277.73 142.1 277.24 143.56C276.75 145.02 253.37 167 252.15 171.84C251.682 173.778 251.977 175.822 252.975 177.548C253.973 179.274 255.597 180.549 257.51 181.11C260.44 181.84 264.34 174.04 266.04 170.11C267.74 166.18 281.16 145.73 281.16 145.73C281.952 145.993 282.808 145.993 283.6 145.73C284.535 145.048 285.358 144.225 286.04 143.29L288.48 142.29C289.69 141.81 292.62 136.93 292.86 136.2C292.872 136.127 292.872 136.053 292.86 135.98C291.18 133.79 286.1 132.09 286.1 132.09Z" fill="white"/>
</mask>
<g mask="url(#mask1_1_211)">
<g style="mix-blend-mode:multiply">
<path d="M255.59 180.25C256.181 180.635 256.829 180.926 257.51 181.11C260.44 181.84 264.34 174.04 266.04 170.11C267.74 166.18 281.16 145.73 281.16 145.73C281.16 145.73 256.1 173.73 255.38 177.73C255.229 178.574 255.302 179.443 255.59 180.25Z" fill="#FDBA74"/>
</g>
<g style="mix-blend-mode:multiply" opacity="0.3">
<path d="M255.59 180.25C256.181 180.635 256.829 180.926 257.51 181.11C260.44 181.84 264.34 174.04 266.04 170.11C267.74 166.18 281.16 145.73 281.16 145.73C281.16 145.73 256.1 173.73 255.38 177.73C255.229 178.574 255.302 179.443 255.59 180.25Z" fill="black"/>
</g>
</g>
<path d="M286.1 132.09L283.9 130.49C283.9 130.49 281.9 128.93 280.9 130.15C280.9 130.15 277.73 142.1 277.24 143.56C276.75 145.02 253.37 167 252.15 171.84C251.682 173.778 251.977 175.822 252.975 177.548C253.973 179.274 255.597 180.549 257.51 181.11C260.44 181.84 264.34 174.04 266.04 170.11C267.74 166.18 281.16 145.73 281.16 145.73C281.952 145.993 282.808 145.993 283.6 145.73C284.535 145.048 285.358 144.225 286.04 143.29L288.48 142.29C289.69 141.81 292.62 136.93 292.86 136.2C292.872 136.127 292.872 136.053 292.86 135.98C291.18 133.79 286.1 132.09 286.1 132.09Z" stroke="#2E353A" stroke-linecap="round" stroke-linejoin="round"/>
<path d="M283.86 139.64C284.931 140.035 286.046 140.3 287.18 140.43" stroke="#2E353A" stroke-linecap="round" stroke-linejoin="round"/>
<path d="M285.6 140.59C285.6 140.59 283.6 143.2 286.04 143.32" stroke="#2E353A" stroke-linecap="round" stroke-linejoin="round"/>
<path d="M282.65 134.15C282.65 134.15 288.13 136.79 289.08 137.74C289.494 138.072 289.795 138.525 289.938 139.036C290.082 139.548 290.061 140.091 289.88 140.59" stroke="#2E353A" stroke-linecap="round" stroke-linejoin="round"/>
<path d="M298.71 133C298.71 133 297.51 135 298.11 135.56C298.71 136.12 300.51 136.46 300.66 135.11C300.81 133.76 300.51 132.54 298.71 133Z" fill="white" stroke="#2E353A" stroke-linecap="round" stroke-linejoin="round"/>
<path d="M241.74 276.38C241.74 276.38 247.6 284.83 247.6 286.79C247.6 288.75 237.52 291.34 233.29 291.66C229.06 291.98 218.99 292.96 214.76 292.31C210.53 291.66 214.76 290.04 218.99 287.11C223.22 284.18 227.12 283.21 228.09 279.96L241.74 276.38Z" fill="#2E353A" stroke="#2E353A" stroke-miterlimit="10"/>
<path d="M233.29 291.66C237.52 291.34 247.6 288.74 247.6 286.79C247.478 286.037 247.22 285.312 246.84 284.65C241.065 287.408 234.809 289.018 228.42 289.39C221.65 289.74 217.34 289.8 214.81 289.79C212.81 291.08 212.07 291.9 214.76 292.31C219 293 229.07 292 233.29 291.66Z" fill="white" stroke="#2E353A" stroke-miterlimit="10"/>
<path d="M243.7 202.16C243.7 202.16 220.61 200.16 216.06 201.51C211.51 202.86 210.86 208.66 212.16 212.89C213.46 217.12 228.09 280 228.09 280L241.74 276.42L234.27 229.18L243.7 202.16Z" fill="white"/>
<mask id="mask2_1_211" style="mask-type:luminance" maskUnits="userSpaceOnUse" x="211" y="201" width="33" height="79">
<path d="M243.7 202.16C243.7 202.16 220.61 200.16 216.06 201.51C211.51 202.86 210.86 208.66 212.16 212.89C213.46 217.12 228.09 280 228.09 280L241.74 276.42L234.27 229.18L243.7 202.16Z" fill="white"/>
</mask>
<g mask="url(#mask2_1_211)">
<path d="M239.77 207.14C239.77 207.14 230.09 204.8 230.43 206.47C230.77 208.14 231.43 210.81 231.43 210.81C231.43 210.81 225.75 204.13 225.08 208.47C224.41 212.81 234.08 232.84 234.08 232.84L239.77 207.14Z" fill="#FDBA74"/>
<g style="mix-blend-mode:multiply" opacity="0.3">
<path d="M239.77 207.14C239.77 207.14 230.09 204.8 230.43 206.47C230.77 208.14 231.43 210.81 231.43 210.81C231.43 210.81 225.75 204.13 225.08 208.47C224.41 212.81 234.08 232.84 234.08 232.84L239.77 207.14Z" fill="black"/>
</g>
</g>
<path d="M243.7 202.16C243.7 202.16 220.61 200.16 216.06 201.51C211.51 202.86 210.86 208.66 212.16 212.89C213.46 217.12 228.09 280 228.09 280L241.74 276.42L234.27 229.18L243.7 202.16Z" stroke="#2E353A" stroke-miterlimit="10"/>
<path d="M229.27 210.89L234.5 218.59L233.89 209.96" stroke="#2E353A" stroke-linecap="round" stroke-linejoin="round"/>
<path d="M317.73 145.51C317.73 145.51 299.2 149.17 298.47 149.9C297.74 150.63 280.92 199.4 280.92 199.4H324.07C324.07 199.4 343.82 151.4 342.07 150.15C340.32 148.9 321.39 145 317.73 145.51Z" fill="white" stroke="#2E353A" stroke-linecap="round" stroke-linejoin="round"/>
<path d="M332.27 168.03L331.42 169.89L326 165.99L329.9 171.42L320.57 170.74L326.68 174.64L316.68 192.1L327.19 190.4L334.13 174.64L332.27 168.03Z" fill="#FDBA74"/>
<g style="mix-blend-mode:multiply" opacity="0.3">
<path d="M332.27 168.03L331.42 169.89L326 165.99L329.9 171.42L320.57 170.74L326.68 174.64L316.68 192.1L327.19 190.4L334.13 174.64L332.27 168.03Z" fill="black"/>
</g>
<path d="M323.68 163.59L334.14 173.27L324.2 171.96" stroke="#2E353A" stroke-linecap="round" stroke-linejoin="round"/>
<path d="M317.73 145.51C317.73 145.51 313.93 146.26 309.73 147.15C308.81 150.96 306.84 159.47 307.03 162.09C307.27 165.51 309.95 164.29 312.15 163.8C314.07 163.37 324.66 151.27 328.03 146.69C323.49 145.87 319.26 145.31 317.73 145.51Z" fill="#2E353A" stroke="#2E353A" stroke-linecap="round" stroke-linejoin="round"/>
<path d="M289.56 179.9H297.94L291.47 200.42H282.85L289.56 179.9Z" fill="#2E353A"/>
<path d="M313.59 143.07C313.59 143.07 308.71 160.14 310.42 160.39C312.13 160.64 322.85 148.68 323.83 146.24C324.81 143.8 328.23 135.75 328.23 135.75C328.23 135.75 321.39 142.59 313.59 143.07Z" fill="white" stroke="#2E353A" stroke-linecap="round" stroke-linejoin="round"/>
<g style="mix-blend-mode:multiply">
<path d="M323.83 146.24C324.83 143.81 328.23 135.75 328.23 135.75C328.23 135.75 321.39 142.59 313.59 143.07L313.25 144.27C314.48 145.27 316.77 146.94 317.86 147.18C318.95 147.42 316.86 152.83 315.35 156.47C319 152.82 323.23 147.74 323.83 146.24Z" fill="#FDBA74"/>
</g>
<g style="mix-blend-mode:multiply" opacity="0.3">
<path d="M323.83 146.24C324.83 143.81 328.23 135.75 328.23 135.75C328.23 135.75 321.39 142.59 313.59 143.07L313.25 144.27C314.48 145.27 316.77 146.94 317.86 147.18C318.95 147.42 316.86 152.83 315.35 156.47C319 152.82 323.23 147.74 323.83 146.24Z" fill="black"/>
</g>
<path d="M306.37 115.66C306.37 115.66 295.74 116.84 294.26 110.05C292.78 103.26 299 102 302.83 105.05C305.76 107.37 300.76 100.62 304.89 98.26C309.02 95.9 309.62 98.85 314.35 99.74C319.08 100.63 321.14 99.15 328.52 99.15C335.9 99.15 336.8 106.83 336.8 111.55C336.8 116.27 334.14 128.39 334.14 128.39C334.14 128.39 329.71 129.57 326.46 128.39C323.21 127.21 319.37 123.39 320.55 121.01C321.73 118.63 318.78 117.46 315.82 117.46C312.86 117.46 306.37 115.66 306.37 115.66Z" fill="#2E353A" stroke="#2E353A" stroke-linecap="round" stroke-linejoin="round"/>
<path d="M320.44 113.15C322.325 112.919 324.193 112.561 326.03 112.08C334.14 109.99 336.75 113.39 336.75 113.39" stroke="white" stroke-width="0.75" stroke-linecap="round" stroke-linejoin="round"/>
<path d="M313.22 113.13C314.256 113.314 315.308 113.401 316.36 113.39" stroke="white" stroke-width="0.75" stroke-linecap="round" stroke-linejoin="round"/>
<path d="M327.34 116.53C327.34 116.53 332.83 116 335.44 118.88" stroke="white" stroke-width="0.75" stroke-linecap="round" stroke-linejoin="round"/>
<path d="M260.37 178.83C260.37 179.085 260.294 179.335 260.153 179.547C260.011 179.759 259.809 179.924 259.574 180.022C259.338 180.119 259.079 180.145 258.828 180.095C258.578 180.045 258.348 179.923 258.168 179.742C257.987 179.562 257.865 179.332 257.815 179.082C257.765 178.831 257.791 178.572 257.888 178.336C257.986 178.101 258.151 177.899 258.363 177.757C258.575 177.616 258.825 177.54 259.08 177.54C259.249 177.54 259.417 177.573 259.574 177.638C259.73 177.703 259.872 177.798 259.992 177.918C260.112 178.038 260.207 178.18 260.272 178.336C260.337 178.493 260.37 178.661 260.37 178.83Z" fill="white" stroke="#2E353A" stroke-width="0.5" stroke-miterlimit="10"/>
<path d="M261.1 179.22C261.995 179.22 262.72 178.495 262.72 177.6C262.72 176.705 261.995 175.98 261.1 175.98C260.205 175.98 259.48 176.705 259.48 177.6C259.48 178.495 260.205 179.22 261.1 179.22Z" fill="white" stroke="#2E353A" stroke-width="0.5" stroke-miterlimit="10"/>
<path d="M260.65 181.13C261.302 181.13 261.83 180.602 261.83 179.95C261.83 179.298 261.302 178.77 260.65 178.77C259.998 178.77 259.47 179.298 259.47 179.95C259.47 180.602 259.998 181.13 260.65 181.13Z" fill="white" stroke="#2E353A" stroke-width="0.5" stroke-miterlimit="10"/>
<path d="M289.28 178.77C289.282 179.026 289.208 179.276 289.067 179.489C288.927 179.703 288.726 179.87 288.491 179.969C288.255 180.068 287.995 180.095 287.745 180.046C287.494 179.998 287.263 179.876 287.081 179.696C286.9 179.516 286.776 179.286 286.726 179.035C286.675 178.785 286.7 178.525 286.797 178.289C286.895 178.052 287.06 177.85 287.272 177.708C287.485 177.566 287.734 177.49 287.99 177.49C288.33 177.49 288.657 177.625 288.899 177.864C289.14 178.104 289.277 178.43 289.28 178.77Z" fill="white" stroke="#2E353A" stroke-width="0.5" stroke-miterlimit="10"/>
<path d="M291.63 177.54C291.632 177.863 291.538 178.18 291.359 178.449C291.181 178.719 290.927 178.929 290.628 179.054C290.33 179.179 290.002 179.212 289.684 179.149C289.367 179.087 289.076 178.931 288.847 178.703C288.619 178.474 288.463 178.183 288.401 177.866C288.338 177.548 288.371 177.22 288.496 176.922C288.621 176.623 288.831 176.369 289.101 176.191C289.37 176.012 289.687 175.918 290.01 175.92C290.44 175.92 290.852 176.091 291.156 176.395C291.459 176.698 291.63 177.11 291.63 177.54Z" fill="white" stroke="#2E353A" stroke-width="0.5" stroke-miterlimit="10"/>
<path d="M290.74 179.9C290.74 180.133 290.671 180.362 290.541 180.556C290.411 180.75 290.227 180.901 290.012 180.99C289.796 181.079 289.559 181.103 289.33 181.057C289.101 181.012 288.891 180.899 288.726 180.734C288.561 180.569 288.448 180.359 288.403 180.13C288.357 179.901 288.381 179.664 288.47 179.448C288.559 179.233 288.71 179.049 288.904 178.919C289.098 178.789 289.327 178.72 289.56 178.72C289.715 178.719 289.869 178.748 290.013 178.807C290.157 178.866 290.288 178.953 290.397 179.063C290.507 179.173 290.594 179.303 290.653 179.447C290.712 179.591 290.741 179.745 290.74 179.9Z" fill="white" stroke="#2E353A" stroke-width="0.5" stroke-miterlimit="10"/>
<path d="M274.94 176.42C274.94 176.675 274.864 176.925 274.723 177.137C274.581 177.349 274.379 177.514 274.144 177.612C273.908 177.709 273.649 177.735 273.398 177.685C273.148 177.635 272.918 177.513 272.738 177.332C272.557 177.152 272.435 176.922 272.385 176.672C272.335 176.421 272.361 176.162 272.458 175.926C272.556 175.691 272.721 175.489 272.933 175.347C273.145 175.206 273.395 175.13 273.65 175.13C273.819 175.13 273.987 175.163 274.144 175.228C274.3 175.293 274.442 175.388 274.562 175.508C274.682 175.628 274.777 175.77 274.842 175.926C274.907 176.083 274.94 176.251 274.94 176.42Z" fill="white" stroke="#2E353A" stroke-width="0.5" stroke-miterlimit="10"/>
<path d="M277.29 175.19C277.29 175.512 277.194 175.828 277.015 176.096C276.836 176.364 276.582 176.573 276.284 176.696C275.986 176.819 275.658 176.852 275.342 176.789C275.026 176.726 274.735 176.571 274.507 176.343C274.279 176.115 274.124 175.824 274.061 175.508C273.998 175.192 274.031 174.864 274.154 174.566C274.277 174.268 274.486 174.014 274.754 173.835C275.022 173.656 275.338 173.56 275.66 173.56C275.874 173.559 276.087 173.6 276.285 173.681C276.484 173.763 276.664 173.883 276.816 174.034C276.967 174.186 277.087 174.366 277.169 174.565C277.25 174.763 277.291 174.976 277.29 175.19Z" fill="white" stroke="#2E353A" stroke-width="0.5" stroke-miterlimit="10"/>
<path d="M275.22 178.72C275.872 178.72 276.4 178.192 276.4 177.54C276.4 176.888 275.872 176.36 275.22 176.36C274.568 176.36 274.04 176.888 274.04 177.54C274.04 178.192 274.568 178.72 275.22 178.72Z" fill="white" stroke="#2E353A" stroke-width="0.5" stroke-miterlimit="10"/>
<path d="M270.45 176.25C271.162 176.25 271.74 175.672 271.74 174.96C271.74 174.248 271.162 173.67 270.45 173.67C269.738 173.67 269.16 174.248 269.16 174.96C269.16 175.672 269.738 176.25 270.45 176.25Z" fill="white" stroke="#2E353A" stroke-width="0.5" stroke-miterlimit="10"/>
<path d="M274.1 173.73C274.118 173.954 274.089 174.179 274.015 174.392C273.941 174.604 273.824 174.799 273.672 174.964C273.519 175.129 273.334 175.261 273.128 175.351C272.922 175.441 272.7 175.488 272.475 175.488C272.25 175.488 272.028 175.441 271.822 175.351C271.616 175.261 271.431 175.129 271.278 174.964C271.126 174.799 271.009 174.604 270.935 174.392C270.861 174.179 270.832 173.954 270.85 173.73C270.882 173.321 271.067 172.939 271.368 172.661C271.67 172.382 272.065 172.228 272.475 172.228C272.885 172.228 273.28 172.382 273.582 172.661C273.883 172.939 274.068 173.321 274.1 173.73Z" fill="white" stroke="#2E353A" stroke-width="0.5" stroke-miterlimit="10"/>
<path d="M273.2 176.09C273.2 176.323 273.131 176.552 273.001 176.746C272.871 176.94 272.687 177.091 272.472 177.18C272.256 177.269 272.019 177.293 271.79 177.247C271.561 177.202 271.351 177.089 271.186 176.924C271.021 176.759 270.908 176.549 270.863 176.32C270.817 176.091 270.841 175.854 270.93 175.638C271.019 175.423 271.17 175.239 271.364 175.109C271.558 174.979 271.787 174.91 272.02 174.91C272.175 174.909 272.329 174.938 272.473 174.997C272.617 175.056 272.748 175.143 272.857 175.253C272.967 175.363 273.054 175.493 273.113 175.637C273.172 175.781 273.201 175.935 273.2 176.09Z" fill="white" stroke="#2E353A" stroke-width="0.5" stroke-miterlimit="10"/>
<path d="M280.54 176.09C280.54 176.345 280.464 176.595 280.323 176.807C280.181 177.019 279.979 177.184 279.744 177.282C279.508 177.379 279.249 177.405 278.998 177.355C278.748 177.305 278.518 177.183 278.338 177.002C278.157 176.822 278.035 176.592 277.985 176.342C277.935 176.091 277.961 175.832 278.058 175.596C278.156 175.361 278.321 175.159 278.533 175.017C278.745 174.876 278.995 174.8 279.25 174.8C279.42 174.799 279.588 174.831 279.745 174.895C279.902 174.96 280.045 175.055 280.165 175.175C280.285 175.295 280.38 175.438 280.445 175.595C280.509 175.752 280.541 175.92 280.54 176.09Z" fill="white" stroke="#2E353A" stroke-width="0.5" stroke-miterlimit="10"/>
<path d="M281.27 176.47C282.165 176.47 282.89 175.745 282.89 174.85C282.89 173.955 282.165 173.23 281.27 173.23C280.375 173.23 279.65 173.955 279.65 174.85C279.65 175.745 280.375 176.47 281.27 176.47Z" fill="white" stroke="#2E353A" stroke-width="0.5" stroke-miterlimit="10"/>
<path d="M280.82 178.39C281.472 178.39 282 177.862 282 177.21C282 176.558 281.472 176.03 280.82 176.03C280.168 176.03 279.64 176.558 279.64 177.21C279.64 177.862 280.168 178.39 280.82 178.39Z" fill="white" stroke="#2E353A" stroke-width="0.5" stroke-miterlimit="10"/>
<path d="M285.13 175.75C285.222 175.512 285.383 175.307 285.591 175.16C285.8 175.014 286.047 174.932 286.302 174.926C286.557 174.92 286.808 174.99 287.024 175.126C287.239 175.263 287.409 175.46 287.512 175.693C287.616 175.926 287.648 176.185 287.604 176.436C287.56 176.687 287.443 176.92 287.268 177.105C287.092 177.29 286.865 177.418 286.617 177.474C286.368 177.53 286.108 177.512 285.87 177.42C285.712 177.359 285.567 177.268 285.444 177.151C285.321 177.034 285.222 176.894 285.154 176.739C285.085 176.583 285.047 176.416 285.043 176.247C285.039 176.077 285.069 175.908 285.13 175.75Z" fill="white" stroke="#2E353A" stroke-width="0.5" stroke-miterlimit="10"/>
<path d="M282.49 176C282.607 175.7 282.81 175.44 283.074 175.255C283.338 175.07 283.651 174.968 283.973 174.961C284.295 174.954 284.612 175.042 284.884 175.215C285.156 175.388 285.371 175.638 285.501 175.933C285.631 176.228 285.671 176.555 285.615 176.872C285.559 177.19 285.41 177.484 285.188 177.717C284.965 177.95 284.678 178.111 284.364 178.181C284.049 178.251 283.721 178.227 283.42 178.11C283.22 178.033 283.038 177.917 282.883 177.769C282.728 177.621 282.604 177.444 282.518 177.248C282.431 177.052 282.385 176.841 282.38 176.627C282.375 176.413 282.412 176.2 282.49 176Z" fill="white" stroke="#2E353A" stroke-width="0.5" stroke-miterlimit="10"/>
<path d="M284.19 174.18C284.244 174.035 284.327 173.902 284.433 173.79C284.539 173.677 284.667 173.587 284.809 173.525C284.95 173.462 285.103 173.429 285.258 173.426C285.413 173.424 285.566 173.452 285.71 173.51C285.928 173.594 286.117 173.74 286.252 173.931C286.387 174.122 286.462 174.349 286.468 174.583C286.474 174.817 286.41 175.047 286.284 175.244C286.159 175.442 285.978 175.597 285.764 175.692C285.55 175.786 285.313 175.815 285.083 175.774C284.852 175.733 284.639 175.625 284.471 175.463C284.302 175.301 284.185 175.093 284.135 174.864C284.085 174.636 284.104 174.398 284.19 174.18Z" fill="white" stroke="#2E353A" stroke-width="0.5" stroke-miterlimit="10"/>
<path d="M287.39 177.83C287.483 177.592 287.644 177.387 287.853 177.241C288.063 177.095 288.311 177.015 288.566 177.01C288.821 177.004 289.072 177.075 289.287 177.213C289.502 177.35 289.671 177.549 289.774 177.783C289.876 178.017 289.906 178.275 289.861 178.527C289.816 178.778 289.698 179.01 289.521 179.194C289.344 179.378 289.116 179.505 288.867 179.56C288.617 179.614 288.358 179.593 288.12 179.5C287.802 179.375 287.546 179.129 287.41 178.816C287.273 178.503 287.266 178.148 287.39 177.83Z" fill="white" stroke="#2E353A" stroke-width="0.5" stroke-miterlimit="10"/>
<path d="M284.75 178.12C284.867 177.82 285.071 177.561 285.336 177.376C285.601 177.192 285.914 177.09 286.237 177.084C286.559 177.078 286.876 177.167 287.148 177.342C287.419 177.516 287.633 177.766 287.762 178.062C287.891 178.358 287.929 178.685 287.872 179.003C287.815 179.32 287.665 179.613 287.441 179.846C287.217 180.078 286.929 180.238 286.614 180.307C286.299 180.375 285.97 180.348 285.67 180.23C285.269 180.072 284.946 179.761 284.774 179.365C284.601 178.97 284.593 178.522 284.75 178.12Z" fill="white" stroke="#2E353A" stroke-width="0.5" stroke-miterlimit="10"/>
<path d="M286.44 176.26C286.524 176.045 286.671 175.86 286.86 175.728C287.05 175.596 287.274 175.523 287.505 175.518C287.736 175.513 287.963 175.577 288.158 175.701C288.353 175.825 288.506 176.004 288.6 176.216C288.693 176.427 288.721 176.661 288.682 176.889C288.642 177.116 288.536 177.327 288.376 177.494C288.217 177.662 288.012 177.778 287.786 177.829C287.561 177.88 287.326 177.863 287.11 177.78C286.966 177.725 286.834 177.641 286.722 177.535C286.61 177.428 286.521 177.301 286.458 177.16C286.396 177.018 286.362 176.866 286.359 176.712C286.356 176.557 286.384 176.404 286.44 176.26Z" fill="white" stroke="#2E353A" stroke-width="0.5" stroke-miterlimit="10"/>
<path d="M268.11 175.37C268.171 175.212 268.262 175.067 268.379 174.944C268.497 174.822 268.637 174.724 268.792 174.656C268.948 174.588 269.115 174.551 269.285 174.549C269.454 174.546 269.623 174.577 269.78 174.64C270.084 174.775 270.324 175.021 270.45 175.329C270.577 175.636 270.58 175.98 270.459 176.29C270.337 176.599 270.101 176.85 269.8 176.99C269.498 177.13 269.154 177.148 268.84 177.04C268.522 176.915 268.266 176.669 268.13 176.356C267.993 176.043 267.986 175.688 268.11 175.37Z" fill="white" stroke="#2E353A" stroke-width="0.5" stroke-miterlimit="10"/>
<path d="M265.47 175.66C265.585 175.358 265.787 175.098 266.051 174.911C266.315 174.725 266.628 174.621 266.95 174.612C267.273 174.604 267.591 174.691 267.864 174.864C268.137 175.037 268.352 175.286 268.483 175.582C268.614 175.877 268.654 176.204 268.598 176.522C268.543 176.84 268.394 177.135 268.171 177.368C267.948 177.601 267.66 177.763 267.345 177.833C267.03 177.903 266.701 177.877 266.4 177.76C266.201 177.684 266.019 177.569 265.864 177.422C265.709 177.275 265.585 177.098 265.499 176.903C265.412 176.708 265.365 176.498 265.36 176.284C265.355 176.071 265.393 175.859 265.47 175.66Z" fill="white" stroke="#2E353A" stroke-width="0.5" stroke-miterlimit="10"/>
<path d="M267.16 173.79C267.274 173.498 267.499 173.264 267.786 173.138C268.073 173.012 268.398 173.006 268.69 173.12C268.982 173.234 269.216 173.459 269.342 173.746C269.468 174.033 269.474 174.358 269.36 174.65C269.246 174.942 269.021 175.176 268.734 175.302C268.447 175.428 268.122 175.434 267.83 175.32C267.538 175.206 267.304 174.981 267.178 174.694C267.052 174.407 267.046 174.082 267.16 173.79Z" fill="white" stroke="#2E353A" stroke-width="0.5" stroke-miterlimit="10"/>
<path d="M275.61 179.06C275.61 179.315 275.534 179.565 275.393 179.777C275.251 179.989 275.049 180.154 274.814 180.252C274.578 180.349 274.319 180.375 274.068 180.325C273.818 180.275 273.588 180.153 273.408 179.972C273.227 179.792 273.105 179.562 273.055 179.312C273.005 179.061 273.031 178.802 273.128 178.566C273.226 178.331 273.391 178.129 273.603 177.987C273.815 177.846 274.065 177.77 274.32 177.77C274.49 177.769 274.658 177.801 274.815 177.865C274.972 177.93 275.115 178.025 275.235 178.145C275.355 178.265 275.45 178.408 275.515 178.565C275.579 178.722 275.611 178.89 275.61 179.06Z" fill="white" stroke="#2E353A" stroke-width="0.5" stroke-miterlimit="10"/>
<path d="M278 177.82C278.002 178.143 277.908 178.46 277.729 178.729C277.551 178.999 277.297 179.209 276.998 179.334C276.7 179.459 276.372 179.492 276.054 179.429C275.737 179.367 275.446 179.211 275.217 178.983C274.989 178.754 274.833 178.463 274.771 178.146C274.708 177.828 274.741 177.5 274.866 177.202C274.991 176.903 275.201 176.649 275.471 176.471C275.74 176.292 276.057 176.198 276.38 176.2C276.809 176.203 277.219 176.374 277.523 176.677C277.826 176.981 277.997 177.391 278 177.82Z" fill="white" stroke="#2E353A" stroke-width="0.5" stroke-miterlimit="10"/>
<path d="M275.89 181.36C276.542 181.36 277.07 180.832 277.07 180.18C277.07 179.528 276.542 179 275.89 179C275.238 179 274.71 179.528 274.71 180.18C274.71 180.832 275.238 181.36 275.89 181.36Z" fill="white" stroke="#2E353A" stroke-width="0.5" stroke-miterlimit="10"/>
<path d="M264.09 179.9C263.864 180.018 263.607 180.065 263.354 180.037C263.1 180.009 262.861 179.907 262.665 179.743C262.47 179.578 262.328 179.36 262.257 179.115C262.186 178.87 262.189 178.61 262.265 178.366C262.342 178.123 262.49 177.908 262.689 177.749C262.888 177.589 263.13 177.492 263.384 177.47C263.638 177.448 263.893 177.502 264.117 177.624C264.34 177.747 264.522 177.934 264.64 178.16C264.72 178.31 264.768 178.474 264.784 178.644C264.799 178.813 264.781 178.983 264.73 179.145C264.678 179.307 264.595 179.457 264.486 179.587C264.376 179.716 264.241 179.823 264.09 179.9Z" fill="white" stroke="#2E353A" stroke-width="0.5" stroke-miterlimit="10"/>
<path d="M266.28 181.42C266.09 181.538 265.877 181.615 265.656 181.647C265.434 181.679 265.209 181.665 264.993 181.606C264.777 181.547 264.576 181.444 264.401 181.303C264.227 181.163 264.083 180.989 263.979 180.79C263.875 180.592 263.813 180.375 263.797 180.152C263.781 179.928 263.811 179.704 263.885 179.493C263.959 179.282 264.076 179.089 264.228 178.925C264.381 178.761 264.565 178.63 264.77 178.54C265.148 178.375 265.574 178.359 265.963 178.496C266.352 178.632 266.675 178.911 266.867 179.277C267.058 179.642 267.104 180.066 266.995 180.464C266.886 180.861 266.631 181.203 266.28 181.42Z" fill="white" stroke="#2E353A" stroke-width="0.5" stroke-miterlimit="10"/>
<path d="M263.77 181.71C263.563 181.818 263.329 181.863 263.097 181.838C262.864 181.813 262.645 181.719 262.466 181.569C262.287 181.42 262.156 181.22 262.091 180.996C262.025 180.772 262.027 180.533 262.097 180.31C262.167 180.088 262.302 179.891 262.484 179.744C262.666 179.598 262.887 179.509 263.12 179.489C263.353 179.468 263.586 179.518 263.791 179.63C263.996 179.742 264.162 179.913 264.27 180.12C264.343 180.257 264.388 180.407 264.402 180.562C264.416 180.716 264.399 180.872 264.353 181.02C264.306 181.168 264.231 181.305 264.131 181.423C264.031 181.542 263.908 181.639 263.77 181.71Z" fill="white" stroke="#2E353A" stroke-width="0.5" stroke-miterlimit="10"/>
<path d="M266.35 177.43C266.124 177.548 265.867 177.595 265.614 177.567C265.36 177.539 265.121 177.437 264.925 177.273C264.73 177.108 264.588 176.89 264.517 176.645C264.446 176.4 264.449 176.14 264.525 175.896C264.602 175.653 264.75 175.438 264.949 175.279C265.148 175.119 265.39 175.022 265.644 175C265.898 174.978 266.153 175.032 266.377 175.154C266.6 175.277 266.782 175.464 266.9 175.69C266.978 175.84 267.026 176.005 267.041 176.173C267.055 176.342 267.037 176.512 266.986 176.674C266.934 176.836 266.852 176.985 266.743 177.115C266.634 177.245 266.5 177.352 266.35 177.43Z" fill="white" stroke="#2E353A" stroke-width="0.5" stroke-miterlimit="10"/>
<path d="M268.53 179C268.148 179.199 267.703 179.238 267.292 179.109C266.881 178.979 266.539 178.692 266.34 178.31C266.141 177.928 266.102 177.483 266.231 177.072C266.361 176.661 266.648 176.319 267.03 176.12C267.219 176.022 267.426 175.961 267.638 175.943C267.851 175.924 268.065 175.947 268.268 176.011C268.471 176.076 268.66 176.179 268.823 176.316C268.987 176.453 269.122 176.621 269.22 176.81C269.318 176.999 269.379 177.206 269.397 177.418C269.416 177.631 269.393 177.845 269.329 178.048C269.264 178.251 269.161 178.44 269.024 178.603C268.887 178.767 268.719 178.902 268.53 179Z" fill="white" stroke="#2E353A" stroke-width="0.5" stroke-miterlimit="10"/>
<path d="M266 179.24C265.795 179.345 265.563 179.387 265.334 179.361C265.105 179.335 264.888 179.242 264.712 179.093C264.536 178.944 264.407 178.746 264.343 178.525C264.279 178.303 264.281 178.068 264.351 177.848C264.42 177.628 264.552 177.433 264.732 177.288C264.911 177.143 265.13 177.055 265.359 177.034C265.589 177.012 265.82 177.06 266.023 177.169C266.226 177.279 266.392 177.446 266.5 177.65C266.573 177.787 266.618 177.937 266.632 178.092C266.646 178.246 266.629 178.402 266.583 178.55C266.536 178.698 266.461 178.835 266.361 178.953C266.261 179.072 266.138 179.169 266 179.24Z" fill="white" stroke="#2E353A" stroke-width="0.5" stroke-miterlimit="10"/>
<path d="M284.39 178.55C284.164 178.668 283.907 178.715 283.654 178.687C283.4 178.659 283.161 178.557 282.965 178.393C282.77 178.228 282.628 178.01 282.557 177.765C282.486 177.52 282.489 177.26 282.565 177.016C282.642 176.773 282.79 176.558 282.989 176.399C283.188 176.239 283.43 176.142 283.684 176.12C283.938 176.098 284.193 176.152 284.417 176.274C284.64 176.397 284.822 176.584 284.94 176.81C285.02 176.96 285.068 177.124 285.084 177.294C285.099 177.463 285.081 177.633 285.03 177.795C284.978 177.957 284.895 178.107 284.786 178.237C284.676 178.366 284.541 178.473 284.39 178.55Z" fill="white" stroke="#2E353A" stroke-width="0.5" stroke-miterlimit="10"/>
<path d="M286.58 180.07C286.294 180.22 285.97 180.282 285.649 180.248C285.328 180.214 285.024 180.085 284.776 179.878C284.529 179.671 284.348 179.395 284.257 179.085C284.166 178.775 284.17 178.445 284.267 178.137C284.364 177.829 284.55 177.557 284.802 177.355C285.054 177.153 285.36 177.031 285.682 177.003C286.004 176.976 286.327 177.044 286.609 177.2C286.892 177.356 287.122 177.593 287.27 177.88C287.464 178.263 287.501 178.706 287.372 179.116C287.243 179.525 286.959 179.868 286.58 180.07Z" fill="white" stroke="#2E353A" stroke-width="0.5" stroke-miterlimit="10"/>
<path d="M284.08 180.36C283.875 180.467 283.644 180.511 283.414 180.486C283.185 180.461 282.967 180.369 282.79 180.222C282.613 180.074 282.483 179.877 282.417 179.656C282.351 179.435 282.353 179.199 282.421 178.978C282.489 178.757 282.62 178.562 282.799 178.416C282.978 178.27 283.196 178.18 283.426 178.158C283.656 178.136 283.887 178.182 284.091 178.291C284.294 178.4 284.461 178.567 284.57 178.77C284.715 179.046 284.745 179.368 284.653 179.666C284.561 179.964 284.355 180.213 284.08 180.36Z" fill="white" stroke="#2E353A" stroke-width="0.5" stroke-miterlimit="10"/>
<path d="M271.92 180.64C271.694 180.758 271.437 180.805 271.184 180.777C270.93 180.749 270.691 180.647 270.495 180.483C270.3 180.318 270.158 180.1 270.087 179.855C270.016 179.61 270.019 179.35 270.096 179.106C270.172 178.863 270.32 178.648 270.519 178.489C270.718 178.329 270.96 178.232 271.214 178.21C271.468 178.188 271.723 178.242 271.947 178.364C272.17 178.487 272.352 178.674 272.47 178.9C272.548 179.05 272.596 179.215 272.611 179.383C272.625 179.552 272.607 179.722 272.556 179.884C272.504 180.046 272.422 180.195 272.313 180.325C272.204 180.455 272.07 180.562 271.92 180.64Z" fill="white" stroke="#2E353A" stroke-width="0.5" stroke-miterlimit="10"/>
<path d="M274.015 182.198C274.83 181.83 275.192 180.87 274.824 180.055C274.455 179.24 273.495 178.878 272.68 179.246C271.865 179.615 271.503 180.575 271.872 181.39C272.24 182.205 273.2 182.567 274.015 182.198Z" fill="white" stroke="#2E353A" stroke-width="0.5" stroke-miterlimit="10"/>
<path d="M271.6 182.45C271.325 182.577 271.012 182.593 270.725 182.495C270.438 182.397 270.2 182.192 270.06 181.924C269.92 181.655 269.889 181.343 269.972 181.052C270.056 180.761 270.249 180.513 270.51 180.36C270.648 180.279 270.801 180.227 270.959 180.207C271.118 180.188 271.279 180.2 271.433 180.244C271.586 180.288 271.729 180.363 271.853 180.465C271.977 180.566 272.079 180.691 272.153 180.833C272.227 180.974 272.271 181.13 272.283 181.289C272.295 181.448 272.275 181.608 272.223 181.76C272.171 181.911 272.089 182.05 271.982 182.169C271.875 182.287 271.745 182.383 271.6 182.45Z" fill="white" stroke="#2E353A" stroke-width="0.5" stroke-miterlimit="10"/>
<path d="M268 179.52C267.85 179.598 267.685 179.646 267.517 179.661C267.348 179.675 267.178 179.656 267.016 179.605C266.855 179.554 266.705 179.472 266.575 179.363C266.445 179.254 266.338 179.12 266.26 178.97C266.182 178.82 266.134 178.655 266.119 178.487C266.105 178.318 266.124 178.148 266.175 177.986C266.226 177.825 266.308 177.675 266.417 177.545C266.526 177.415 266.66 177.308 266.81 177.23C267.114 177.072 267.468 177.041 267.794 177.145C268.12 177.248 268.392 177.476 268.55 177.78C268.708 178.084 268.739 178.438 268.635 178.764C268.532 179.09 268.304 179.362 268 179.52Z" fill="white" stroke="#2E353A" stroke-width="0.5" stroke-miterlimit="10"/>
<path d="M270.18 181C269.896 181.147 269.574 181.207 269.256 181.172C268.938 181.136 268.637 181.008 268.392 180.802C268.147 180.596 267.969 180.322 267.879 180.014C267.79 179.707 267.794 179.38 267.89 179.075C267.986 178.769 268.17 178.499 268.42 178.299C268.669 178.098 268.973 177.976 269.292 177.948C269.61 177.92 269.93 177.986 270.211 178.14C270.492 178.293 270.721 178.526 270.87 178.81C270.97 178.999 271.032 179.206 271.052 179.418C271.071 179.631 271.048 179.846 270.984 180.05C270.92 180.253 270.816 180.442 270.678 180.606C270.54 180.769 270.37 180.903 270.18 181Z" fill="white" stroke="#2E353A" stroke-width="0.5" stroke-miterlimit="10"/>
<path d="M267.68 181.33C267.473 181.438 267.239 181.483 267.007 181.458C266.774 181.433 266.555 181.339 266.376 181.189C266.197 181.04 266.066 180.84 266.001 180.616C265.935 180.392 265.937 180.153 266.007 179.93C266.077 179.708 266.212 179.511 266.394 179.364C266.576 179.218 266.797 179.129 267.03 179.109C267.263 179.089 267.496 179.138 267.701 179.25C267.906 179.362 268.072 179.533 268.18 179.74C268.324 180.017 268.352 180.34 268.259 180.638C268.165 180.936 267.957 181.185 267.68 181.33Z" fill="white" stroke="#2E353A" stroke-width="0.5" stroke-miterlimit="10"/>
<path d="M271.15 177.55C270.924 177.668 270.667 177.715 270.414 177.687C270.16 177.659 269.921 177.557 269.725 177.393C269.53 177.228 269.388 177.01 269.317 176.765C269.246 176.52 269.249 176.26 269.325 176.016C269.402 175.773 269.55 175.558 269.749 175.399C269.948 175.239 270.19 175.142 270.444 175.12C270.698 175.098 270.953 175.152 271.177 175.274C271.4 175.397 271.582 175.584 271.7 175.81C271.78 175.96 271.828 176.124 271.844 176.294C271.859 176.463 271.841 176.633 271.79 176.795C271.738 176.957 271.655 177.107 271.546 177.237C271.436 177.366 271.301 177.473 271.15 177.55Z" fill="white" stroke="#2E353A" stroke-width="0.5" stroke-miterlimit="10"/>
<path d="M273.33 179.07C273.046 179.216 272.725 179.275 272.407 179.239C272.09 179.203 271.79 179.074 271.546 178.869C271.301 178.663 271.123 178.389 271.034 178.083C270.944 177.776 270.948 177.449 271.043 177.145C271.139 176.84 271.322 176.57 271.571 176.369C271.82 176.168 272.122 176.046 272.44 176.016C272.758 175.987 273.078 176.052 273.359 176.204C273.64 176.356 273.87 176.588 274.02 176.87C274.119 177.06 274.18 177.267 274.199 177.48C274.218 177.694 274.195 177.909 274.131 178.113C274.067 178.317 273.963 178.507 273.826 178.671C273.688 178.835 273.52 178.971 273.33 179.07Z" fill="white" stroke="#2E353A" stroke-width="0.5" stroke-miterlimit="10"/>
<path d="M270.83 179.36C270.623 179.468 270.389 179.513 270.157 179.488C269.924 179.463 269.705 179.369 269.526 179.219C269.347 179.07 269.216 178.87 269.151 178.646C269.085 178.422 269.087 178.183 269.157 177.96C269.227 177.738 269.362 177.541 269.544 177.394C269.726 177.248 269.947 177.159 270.18 177.139C270.413 177.119 270.646 177.168 270.851 177.28C271.056 177.392 271.222 177.563 271.33 177.77C271.474 178.047 271.502 178.37 271.409 178.668C271.315 178.966 271.107 179.215 270.83 179.36Z" fill="white" stroke="#2E353A" stroke-width="0.5" stroke-miterlimit="10"/>
<path d="M263.53 176.12C263.304 176.238 263.047 176.285 262.794 176.257C262.54 176.229 262.301 176.127 262.105 175.963C261.91 175.798 261.768 175.58 261.697 175.335C261.626 175.09 261.629 174.83 261.705 174.586C261.782 174.343 261.93 174.128 262.129 173.969C262.328 173.809 262.57 173.712 262.824 173.69C263.078 173.668 263.333 173.722 263.557 173.844C263.78 173.967 263.962 174.154 264.08 174.38C264.158 174.53 264.206 174.695 264.221 174.863C264.235 175.032 264.217 175.202 264.166 175.364C264.114 175.526 264.032 175.675 263.923 175.805C263.814 175.935 263.68 176.042 263.53 176.12Z" fill="white" stroke="#2E353A" stroke-width="0.5" stroke-miterlimit="10"/>
<path d="M265.622 177.687C266.437 177.319 266.799 176.359 266.43 175.544C266.062 174.728 265.102 174.367 264.287 174.735C263.472 175.104 263.11 176.064 263.478 176.879C263.847 177.694 264.807 178.056 265.622 177.687Z" fill="white" stroke="#2E353A" stroke-width="0.5" stroke-miterlimit="10"/>
<path d="M263.21 177.93C262.934 178.075 262.612 178.104 262.315 178.011C262.018 177.918 261.77 177.711 261.625 177.435C261.48 177.159 261.451 176.837 261.544 176.54C261.637 176.243 261.844 175.995 262.12 175.85C262.257 175.778 262.406 175.734 262.559 175.721C262.713 175.707 262.868 175.723 263.015 175.769C263.162 175.815 263.299 175.89 263.417 175.988C263.536 176.087 263.633 176.208 263.705 176.345C263.777 176.482 263.821 176.631 263.834 176.784C263.848 176.938 263.832 177.093 263.786 177.24C263.74 177.387 263.665 177.524 263.566 177.642C263.468 177.761 263.347 177.858 263.21 177.93Z" fill="white" stroke="#2E353A" stroke-width="0.5" stroke-miterlimit="10"/>
<path d="M279.67 178.11C279.519 178.205 279.35 178.267 279.174 178.293C278.998 178.32 278.819 178.309 278.647 178.262C278.475 178.216 278.315 178.134 278.176 178.023C278.037 177.911 277.923 177.772 277.841 177.614C277.758 177.456 277.709 177.283 277.697 177.106C277.685 176.928 277.71 176.75 277.77 176.582C277.83 176.415 277.924 176.261 278.046 176.132C278.168 176.002 278.316 175.9 278.48 175.83C278.629 175.75 278.792 175.701 278.96 175.685C279.128 175.669 279.297 175.687 279.458 175.737C279.619 175.787 279.769 175.869 279.898 175.978C280.027 176.087 280.133 176.22 280.21 176.37C280.369 176.672 280.401 177.025 280.3 177.352C280.198 177.678 279.972 177.951 279.67 178.11Z" fill="white" stroke="#2E353A" stroke-width="0.5" stroke-miterlimit="10"/>
<path d="M281.85 179.63C281.468 179.827 281.023 179.865 280.613 179.736C280.203 179.607 279.86 179.321 279.66 178.94C279.495 178.562 279.479 178.136 279.616 177.747C279.752 177.358 280.031 177.035 280.397 176.843C280.762 176.652 281.186 176.606 281.584 176.715C281.981 176.824 282.323 177.079 282.54 177.43C282.738 177.814 282.776 178.26 282.647 178.672C282.518 179.084 282.231 179.428 281.85 179.63Z" fill="white" stroke="#2E353A" stroke-width="0.5" stroke-miterlimit="10"/>
<path d="M279.35 179.92C279.143 180.028 278.909 180.073 278.677 180.048C278.444 180.023 278.225 179.929 278.046 179.779C277.867 179.629 277.736 179.43 277.671 179.206C277.605 178.982 277.607 178.743 277.677 178.52C277.747 178.298 277.882 178.101 278.064 177.954C278.246 177.808 278.467 177.719 278.7 177.699C278.933 177.679 279.166 177.728 279.371 177.84C279.575 177.952 279.742 178.123 279.85 178.33C279.994 178.607 280.022 178.93 279.929 179.228C279.835 179.526 279.627 179.775 279.35 179.92Z" fill="white" stroke="#2E353A" stroke-width="0.5" stroke-miterlimit="10"/>
<path d="M286.72 204.35H262.6L257.43 178.83H291.89L286.72 204.35Z" fill="white" stroke="#2E353A" stroke-miterlimit="10"/>
<path d="M273.81 204.35L291.38 178.83H284.18L267.03 204.35H273.81Z" fill="#2E353A"/>
<path d="M262.21 202.46L278.24 178.83H269.97L260.45 193.76L262.21 202.46Z" fill="#2E353A"/>
<path d="M305.46 200.21C305.46 200.21 279.78 198.58 267.46 197.61C255.14 196.64 246.33 192.73 242.46 198.26C238.59 203.79 218 271.4 218 271.4L215.74 276C215.74 276 226.79 284.13 229.07 284.13C231.35 284.13 241.07 249.67 246.95 243.49C252.83 237.31 257 222.31 257 222.31H302.19L305.46 200.21Z" fill="white"/>
<mask id="mask3_1_211" style="mask-type:luminance" maskUnits="userSpaceOnUse" x="215" y="195" width="91" height="90">
<path d="M305.46 200.21C305.46 200.21 279.78 198.58 267.46 197.61C255.14 196.64 246.33 192.73 242.46 198.26C238.59 203.79 218 271.4 218 271.4L215.74 276C215.74 276 226.79 284.13 229.07 284.13C231.35 284.13 241.07 249.67 246.95 243.49C252.83 237.31 257 222.31 257 222.31H302.19L305.46 200.21Z" fill="white"/>
</mask>
<g mask="url(#mask3_1_211)">
<path d="M264 205.67C262.4 206.691 260.943 207.922 259.67 209.33C259.67 209.33 256.33 202 255.33 204.67C254.33 207.34 256.67 213 256.67 213C256.67 213 252 210.67 252.33 213.67C252.538 215.55 252.651 217.439 252.67 219.33C252.67 219.33 247 231.33 243 240.67C239 250.01 227.33 277.33 226 281.67C225.902 281.996 225.835 282.331 225.8 282.67C226.792 283.339 227.901 283.814 229.07 284.07C231.34 284.07 241.07 249.61 246.95 243.43C252.83 237.25 257 222.31 257 222.31H300.3C300.94 220.86 301.43 219.76 301.65 219.31L285.65 201.31C285.65 201.31 267.4 203.25 264 205.67Z" fill="#FDBA74"/>
<g style="mix-blend-mode:multiply" opacity="0.3">
<path d="M264 205.67C262.4 206.691 260.943 207.922 259.67 209.33C259.67 209.33 256.33 202 255.33 204.67C254.33 207.34 256.67 213 256.67 213C256.67 213 252 210.67 252.33 213.67C252.538 215.55 252.651 217.439 252.67 219.33C252.67 219.33 247 231.33 243 240.67C239 250.01 227.33 277.33 226 281.67C225.902 281.996 225.835 282.331 225.8 282.67C226.792 283.339 227.901 283.814 229.07 284.07C231.34 284.07 241.07 249.61 246.95 243.43C252.83 237.25 257 222.31 257 222.31H300.3C300.94 220.86 301.43 219.76 301.65 219.31L285.65 201.31C285.65 201.31 267.4 203.25 264 205.67Z" fill="black"/>
</g>
</g>
<path d="M305.46 200.21C305.46 200.21 279.78 198.58 267.46 197.61C255.14 196.64 246.33 192.73 242.46 198.26C238.59 203.79 218 271.4 218 271.4L215.74 276C215.74 276 226.79 284.13 229.07 284.13C231.35 284.13 241.07 249.67 246.95 243.49C252.83 237.31 257 222.31 257 222.31H302.19L305.46 200.21Z" stroke="#2E353A" stroke-miterlimit="10"/>
<path d="M260.6 212.89L257.02 222.31L263.85 215.81" stroke="#2E353A" stroke-linecap="round" stroke-linejoin="round"/>
<path d="M215.74 276C215.74 276 206.64 276.33 204.04 276C201.44 275.67 194.93 272.43 193.63 275C192.33 277.57 197.86 281.82 202.08 285.07C206.3 288.32 218.99 292.55 222.89 293.2C226.79 293.85 229.07 284.1 229.07 284.1L215.74 276Z" fill="#2E353A" stroke="#2E353A" stroke-miterlimit="10"/>
<path d="M225.72 291.79C221.49 290.6 213.35 288.23 208.91 286.36C204.47 284.49 197.27 277.87 193.91 274.59C193.8 274.707 193.706 274.838 193.63 274.98C192.33 277.58 197.86 281.8 202.08 285.05C206.3 288.3 218.99 292.53 222.89 293.18C223.443 293.22 223.996 293.113 224.494 292.869C224.991 292.624 225.414 292.252 225.72 291.79Z" fill="white" stroke="#2E353A" stroke-miterlimit="10"/>
<path d="M342.13 161.2V197.61H296.38C286.13 197.61 277.83 205.25 277.83 214.67C277.83 224.1 286.13 231.74 296.38 231.74H296.7C297.192 231.739 297.678 231.835 298.133 232.022C298.587 232.209 299 232.485 299.348 232.832C299.695 233.18 299.971 233.593 300.158 234.047C300.345 234.502 300.441 234.988 300.44 235.48V292.48H387.71V161.2C387.71 149.68 377.61 140.32 365.1 140.2C352.44 140.14 342.13 149.56 342.13 161.2Z" fill="#FDBA74" stroke="#2E353A" stroke-linecap="round" stroke-linejoin="round"/>
<path d="M351.83 196V178.86L351.52 170.24C351.52 170.24 350.32 161.24 348.44 157C347.521 155.082 346.07 153.468 344.26 152.35C342.862 155.091 342.133 158.123 342.13 161.2V196H351.83Z" fill="#2E353A"/>
<path d="M350.32 161.2V197.61H308.22C303.695 197.61 299.356 199.407 296.157 202.607C292.957 205.806 291.16 210.145 291.16 214.67C291.159 216.911 291.599 219.131 292.456 221.202C293.313 223.273 294.569 225.154 296.153 226.74C297.738 228.325 299.619 229.582 301.689 230.44C303.76 231.298 305.979 231.74 308.22 231.74C308.712 231.739 309.198 231.835 309.653 232.022C310.107 232.209 310.52 232.485 310.868 232.832C311.215 233.18 311.491 233.593 311.678 234.047C311.865 234.502 311.961 234.989 311.96 235.48V292.48H392.26V161.2C392.26 155.663 390.074 150.35 386.177 146.418C382.279 142.485 376.987 140.25 371.45 140.2C368.681 140.183 365.937 140.713 363.374 141.761C360.811 142.809 358.48 144.353 356.517 146.305C354.553 148.256 352.994 150.577 351.931 153.134C350.867 155.69 350.32 158.431 350.32 161.2Z" fill="#FDBA74" stroke="#2E353A" stroke-linecap="round" stroke-linejoin="round"/>
<path opacity="0.3" d="M350.32 161.2V197.61H308.22C303.695 197.61 299.356 199.407 296.157 202.607C292.957 205.806 291.16 210.145 291.16 214.67C291.159 216.911 291.599 219.131 292.456 221.202C293.313 223.273 294.569 225.154 296.153 226.74C297.738 228.325 299.619 229.582 301.689 230.44C303.76 231.298 305.979 231.74 308.22 231.74C308.712 231.739 309.198 231.835 309.653 232.022C310.107 232.209 310.52 232.485 310.868 232.832C311.215 233.18 311.491 233.593 311.678 234.047C311.865 234.502 311.961 234.989 311.96 235.48V292.48H392.26V161.2C392.26 155.663 390.074 150.35 386.177 146.418C382.279 142.485 376.987 140.25 371.45 140.2C368.681 140.183 365.937 140.713 363.374 141.761C360.811 142.809 358.48 144.353 356.517 146.305C354.553 148.256 352.994 150.577 351.931 153.134C350.867 155.69 350.32 158.431 350.32 161.2Z" fill="black"/>
<path d="M331.14 162.58L337.73 192.32C337.73 192.32 340.61 198.69 346.95 197.96C353.29 197.23 356.5 188.96 354.55 184.52C352.6 180.08 342.11 150.15 342.11 150.15L334.11 148.15" fill="white"/>
<mask id="mask4_1_211" style="mask-type:luminance" maskUnits="userSpaceOnUse" x="331" y="148" width="25" height="51">
<path d="M331.14 162.58L337.73 192.32C337.73 192.32 340.61 198.69 346.95 197.96C353.29 197.23 356.5 188.96 354.55 184.52C352.6 180.08 342.11 150.15 342.11 150.15L334.11 148.15" fill="white"/>
</mask>
<g mask="url(#mask4_1_211)">
<g style="mix-blend-mode:multiply">
<path d="M337.53 149.38C339.643 151.288 341.169 153.757 341.93 156.5C342.93 160.74 351.09 183.11 350.93 185.66C350.77 188.21 344.48 189.05 344.48 189.05C344.48 189.05 349.16 192.62 349.91 194.3L350.66 195.98C350.66 195.98 354.82 193.79 355.16 190.06C355.234 187.416 354.653 184.795 353.47 182.43L342.12 150.15L337.53 149.38Z" fill="#FDBA74"/>
</g>
<g style="mix-blend-mode:multiply" opacity="0.3">
<path d="M337.53 149.38C339.643 151.288 341.169 153.757 341.93 156.5C342.93 160.74 351.09 183.11 350.93 185.66C350.77 188.21 344.48 189.05 344.48 189.05C344.48 189.05 349.16 192.62 349.91 194.3L350.66 195.98C350.66 195.98 354.82 193.79 355.16 190.06C355.234 187.416 354.653 184.795 353.47 182.43L342.12 150.15L337.53 149.38Z" fill="black"/>
</g>
</g>
<path d="M331.14 162.58L337.73 192.32C337.73 192.32 340.61 198.69 346.95 197.96C353.29 197.23 356.5 188.96 354.55 184.52C352.6 180.08 342.11 150.15 342.11 150.15L334.11 148.15" stroke="#2E353A" stroke-linecap="round" stroke-linejoin="round"/>
<path d="M350.65 196C350.65 196 350.85 191.62 345.49 189.42C340.13 187.22 338.16 189.18 334.01 189.42C324.941 190.307 315.928 191.689 307.01 193.56C299.93 195.27 294.86 192.24 292.91 194.43C291.791 195.654 290.886 197.057 290.23 198.58C290.23 198.58 321.88 198.2 332.85 197.71C343.82 197.22 349.43 199.15 350.65 196Z" fill="white"/>
<mask id="mask5_1_211" style="mask-type:luminance" maskUnits="userSpaceOnUse" x="290" y="188" width="61" height="11">
<path d="M350.65 196C350.65 196 350.85 191.62 345.49 189.42C340.13 187.22 338.16 189.18 334.01 189.42C324.941 190.307 315.928 191.689 307.01 193.56C299.93 195.27 294.86 192.24 292.91 194.43C291.791 195.654 290.886 197.057 290.23 198.58C290.23 198.58 321.88 198.2 332.85 197.71C343.82 197.22 349.43 199.15 350.65 196Z" fill="white"/>
</mask>
<g mask="url(#mask5_1_211)">
<g style="mix-blend-mode:multiply">
<path d="M346.34 190.06C346.34 190.06 346.68 191.06 343.97 192.77C341.26 194.48 303.12 198 303.12 198H347C347 198 351.3 196.88 351.3 195.87C351.3 194.86 349.05 190.06 346.34 190.06Z" fill="#FDBA74"/>
</g>
<g style="mix-blend-mode:multiply" opacity="0.3">
<path d="M346.34 190.06C346.34 190.06 346.68 191.06 343.97 192.77C341.26 194.48 303.12 198 303.12 198H347C347 198 351.3 196.88 351.3 195.87C351.3 194.86 349.05 190.06 346.34 190.06Z" fill="black"/>
</g>
</g>
<path d="M350.65 196C350.65 196 350.85 191.62 345.49 189.42C340.13 187.22 338.16 189.18 334.01 189.42C324.941 190.307 315.928 191.689 307.01 193.56C299.93 195.27 294.86 192.24 292.91 194.43C291.791 195.654 290.886 197.057 290.23 198.58C290.23 198.58 321.88 198.2 332.85 197.71C343.82 197.22 349.43 199.15 350.65 196Z" stroke="#2E353A" stroke-linecap="round" stroke-linejoin="round"/>
<path d="M224.37 174.5C224.239 174.498 224.11 174.471 223.99 174.42C223.755 174.315 223.57 174.123 223.473 173.884C223.377 173.646 223.375 173.379 223.47 173.14L228.55 161.29C228.622 161.128 228.736 160.988 228.88 160.884C229.024 160.78 229.193 160.717 229.37 160.7L239.24 159.86C239.383 159.813 239.535 159.799 239.684 159.819C239.834 159.839 239.977 159.892 240.102 159.975C240.228 160.058 240.334 160.169 240.411 160.298C240.488 160.428 240.535 160.573 240.548 160.723C240.561 160.873 240.54 161.024 240.487 161.165C240.433 161.306 240.349 161.433 240.239 161.536C240.13 161.64 239.998 161.717 239.855 161.763C239.711 161.809 239.559 161.821 239.41 161.8L230.11 162.6L225.27 173.91C225.192 174.084 225.066 174.232 224.906 174.336C224.747 174.441 224.561 174.498 224.37 174.5Z" fill="white" stroke="#2E353A" stroke-miterlimit="10"/>
<path d="M227.87 197.12H215.8L213.22 171.6H230.45L227.87 197.12Z" fill="#2E353A" stroke="#2E353A" stroke-miterlimit="10"/>
<path d="M231.01 169.86H212.67V173.53H231.01V169.86Z" fill="white" stroke="#2E353A" stroke-miterlimit="10"/>
<path d="M306.37 115.66C306.37 115.66 303.71 131.02 304.6 135.75C305.49 140.48 309.32 144.9 317 144.61C324.68 144.32 328.23 135.75 328.23 135.75C328.23 135.75 335.61 135.45 336.5 131.61C337.39 127.77 335.61 125.11 333.55 125.11C331.834 125.252 330.149 125.65 328.55 126.29C328.55 126.29 323.24 124.23 323.55 122.16C323.86 120.09 328.28 116.84 327.39 115.66C326.5 114.48 306.37 115.66 306.37 115.66Z" fill="white"/>
<mask id="mask6_1_211" style="mask-type:luminance" maskUnits="userSpaceOnUse" x="304" y="115" width="33" height="30">
<path d="M306.37 115.66C306.37 115.66 303.71 131.02 304.6 135.75C305.49 140.48 309.32 144.9 317 144.61C324.68 144.32 328.23 135.75 328.23 135.75C328.23 135.75 335.61 135.45 336.5 131.61C337.39 127.77 335.61 125.11 333.55 125.11C331.834 125.252 330.149 125.65 328.55 126.29C328.55 126.29 323.24 124.23 323.55 122.16C323.86 120.09 328.28 116.84 327.39 115.66C326.5 114.48 306.37 115.66 306.37 115.66Z" fill="white"/>
</mask>
<g mask="url(#mask6_1_211)">
<g style="mix-blend-mode:multiply">
<path d="M336.5 131.61C337.39 127.77 335.61 125.11 333.55 125.11C331.834 125.252 330.149 125.65 328.55 126.29C328.55 126.29 323.24 124.23 323.55 122.16C323.86 120.09 328.28 116.84 327.39 115.66C327.17 115.36 325.68 115.21 323.59 115.16C323.05 116.31 319.95 123.23 321.81 128.16C323.81 133.59 323.51 139.16 321.3 141.39C319.36 143.33 314.92 144.22 313.89 144.39C314.935 144.549 315.993 144.61 317.05 144.57C324.73 144.27 328.28 135.71 328.28 135.71C328.28 135.71 335.61 135.45 336.5 131.61Z" fill="#FDBA74"/>
</g>
<g style="mix-blend-mode:multiply" opacity="0.3">
<path d="M336.5 131.61C337.39 127.77 335.61 125.11 333.55 125.11C331.834 125.252 330.149 125.65 328.55 126.29C328.55 126.29 323.24 124.23 323.55 122.16C323.86 120.09 328.28 116.84 327.39 115.66C327.17 115.36 325.68 115.21 323.59 115.16C323.05 116.31 319.95 123.23 321.81 128.16C323.81 133.59 323.51 139.16 321.3 141.39C319.36 143.33 314.92 144.22 313.89 144.39C314.935 144.549 315.993 144.61 317.05 144.57C324.73 144.27 328.28 135.71 328.28 135.71C328.28 135.71 335.61 135.45 336.5 131.61Z" fill="black"/>
</g>
</g>
<path d="M306.37 115.66C306.37 115.66 303.71 131.02 304.6 135.75C305.49 140.48 309.32 144.9 317 144.61C324.68 144.32 328.23 135.75 328.23 135.75C328.23 135.75 335.61 135.45 336.5 131.61C337.39 127.77 335.61 125.11 333.55 125.11C331.834 125.252 330.149 125.65 328.55 126.29C328.55 126.29 323.24 124.23 323.55 122.16C323.86 120.09 328.28 116.84 327.39 115.66C326.5 114.48 306.37 115.66 306.37 115.66Z" stroke="#2E353A" stroke-linecap="round" stroke-linejoin="round"/>
<path d="M306.67 130.43C306.67 130.43 313.75 133.97 320.25 130.72C320.25 130.72 319.66 137.81 312.87 138.4C306.08 138.99 306.67 130.43 306.67 130.43Z" fill="#2E353A" stroke="#2E353A" stroke-linecap="round" stroke-linejoin="round"/>
<path d="M311.69 123.34L311.39 125.11C311.39 125.11 309.03 126.29 309.91 127.47C310.247 127.824 310.666 128.09 311.13 128.245C311.593 128.4 312.088 128.44 312.57 128.36" stroke="#2E353A" stroke-linecap="round" stroke-linejoin="round"/>
<path d="M317.39 122.42C317.39 123.27 317 123.97 316.52 123.97C316.04 123.97 315.64 123.27 315.64 122.42C315.64 121.57 316.03 120.86 316.52 120.86C317.01 120.86 317.39 121.56 317.39 122.42Z" fill="#2E353A"/>
<path d="M309.43 121.61C309.43 122.46 309.03 123.16 308.55 123.16C308.07 123.16 307.67 122.46 307.67 121.61C307.67 120.76 308.07 120.05 308.55 120.05C309.03 120.05 309.43 120.75 309.43 121.61Z" fill="#2E353A"/>
<path d="M309.54 137.73C310.546 138.313 311.717 138.549 312.87 138.4C314.228 138.323 315.54 137.877 316.664 137.111C317.788 136.344 318.682 135.286 319.25 134.05C313.65 133.8 310.89 135.77 309.54 137.73Z" fill="white" stroke="#2E353A" stroke-linecap="round" stroke-linejoin="round"/>
<path d="M315.82 117.43C315.82 117.43 319.33 114.84 320.14 118.88" stroke="#2E353A" stroke-linecap="round" stroke-linejoin="round"/>
<path d="M310.85 117.8C310.85 117.8 309.2 115.59 307.73 117.61" stroke="#2E353A" stroke-linecap="round" stroke-linejoin="round"/>
<path d="M42.77 221.82H38.87L50.46 210.62H54.36L42.77 221.82Z" fill="white" stroke="#2E353A" stroke-linecap="round" stroke-linejoin="round"/>
<path d="M40.09 221.82H36.19L47.78 210.62H51.68L40.09 221.82Z" fill="#2E353A" stroke="#2E353A" stroke-linecap="round" stroke-linejoin="round"/>
<path d="M59.72 221.82H63.62L52.03 210.62H48.13L59.72 221.82Z" fill="white" stroke="#2E353A" stroke-linecap="round" stroke-linejoin="round"/>
<path d="M62.41 221.82H66.31L54.72 210.62H50.82L62.41 221.82Z" fill="#2E353A" stroke="#2E353A" stroke-linecap="round" stroke-linejoin="round"/>
<path d="M153.95 221.82H150.05L161.64 210.62H165.54L153.95 221.82Z" fill="white" stroke="#2E353A" stroke-linecap="round" stroke-linejoin="round"/>
<path d="M151.26 221.82H147.36L158.96 210.62H162.86L151.26 221.82Z" fill="#2E353A" stroke="#2E353A" stroke-linecap="round" stroke-linejoin="round"/>
<path d="M170.9 221.82H174.8L163.21 210.62H159.31L170.9 221.82Z" fill="#2E353A" stroke="#2E353A" stroke-linecap="round" stroke-linejoin="round"/>
<path d="M173.59 221.82H177.49L165.9 210.62H162L173.59 221.82Z" fill="white" stroke="#2E353A" stroke-linecap="round" stroke-linejoin="round"/>
<path d="M180.78 122.06H42.67V214.03H180.78V122.06Z" fill="#2E353A" stroke="#2E353A" stroke-linecap="round" stroke-linejoin="round"/>
<path d="M178.5 122.06H40.39V214.03H178.5V122.06Z" fill="#2E353A" stroke="#2E353A" stroke-linecap="round" stroke-linejoin="round"/>
<path d="M176.24 214.02V122.06H38.13V123.34L35.09 129.78V214.02H176.24Z" fill="#2E353A" stroke="#2E353A" stroke-linecap="round" stroke-linejoin="round"/>
<path d="M176.24 214.02V122.06L172.6 129.78V214.02H176.24Z" fill="#2E353A" stroke="#2E353A" stroke-linecap="round" stroke-linejoin="round"/>
<path d="M35.09 129.78H172.6L176.24 122.06H38.13L35.09 129.78Z" fill="white" stroke="#2E353A" stroke-linecap="round" stroke-linejoin="round"/>
<path d="M41.5 203.25H163" stroke="white" stroke-linecap="round" stroke-linejoin="round"/>
<path d="M137 195.37H66.9C66.5324 195.34 66.1896 195.172 65.9397 194.901C65.6898 194.629 65.5511 194.274 65.5511 193.905C65.5511 193.536 65.6898 193.181 65.9397 192.909C66.1896 192.638 66.5324 192.47 66.9 192.44H137C137.368 192.47 137.71 192.638 137.96 192.909C138.21 193.181 138.349 193.536 138.349 193.905C138.349 194.274 138.21 194.629 137.96 194.901C137.71 195.172 137.368 195.34 137 195.37Z" fill="#2E353A" stroke="white" stroke-linecap="round" stroke-linejoin="round"/>
<path d="M64.72 170.23V136.9H135.44V172.1" stroke="white" stroke-linecap="round" stroke-linejoin="round"/>
<path d="M196.76 227.19H22.28V292.53H196.76V227.19Z" fill="#2E353A" stroke="#2E353A" stroke-linecap="round" stroke-linejoin="round"/>
<path d="M196.75 227.19H132.96V292.53H196.75V227.19Z" fill="#FDBA74" stroke="#2E353A" stroke-linecap="round" stroke-linejoin="round"/>
<g style="mix-blend-mode:multiply" opacity="0.3">
<path d="M196.75 227.19H132.96V292.53H196.75V227.19Z" fill="black"/>
</g>
<path d="M200.46 220.85H18.58V228.16H200.46V220.85Z" fill="#2E353A" stroke="#2E353A" stroke-linecap="round" stroke-linejoin="round"/>
<path d="M196.6 225.35H22.38V232.66H196.6V225.35Z" fill="#2E353A" stroke="#2E353A" stroke-linecap="round" stroke-linejoin="round"/>
<path d="M200.46 220.85H139.51V228.16H200.46V220.85Z" fill="#FDBA74" stroke="#2E353A" stroke-linecap="round" stroke-linejoin="round"/>
<g style="mix-blend-mode:multiply" opacity="0.3">
<path d="M200.46 220.85H139.51V228.16H200.46V220.85Z" fill="black"/>
</g>
</svg>
